<svg xmlns="http://www.w3.org/2000/svg" width="1200" height="630" viewBox="0 0 1200 630"><defs><linearGradient id="bg" x1="0" y1="0" x2="1" y2="1"><stop stop-color="#050b13"/><stop offset="1" stop-color="#0c1c31"/></linearGradient><linearGradient id="g" x1="0" y1="0" x2="1" y2="1"><stop stop-color="#52f2d2"/><stop offset=".55" stop-color="#5da8ff"/><stop offset="1" stop-color="#9c7bff"/></linearGradient><pattern id="grid" width="50" height="50" patternUnits="userSpaceOnUse"><path d="M50 0H0V50" fill="none" stroke="#5da8ff" stroke-opacity=".08"/></pattern></defs><rect width="1200" height="630" fill="url(#bg)"/><rect width="1200" height="630" fill="url(#grid)"/><circle cx="1030" cy="110" r="270" fill="#52f2d2" opacity=".09"/><circle cx="1030" cy="530" r="230" fill="#9c7bff" opacity=".08"/><g transform="translate(88 72)"><path d="M58 0 108 29v58l-50 29L8 87V29Z" fill="none" stroke="url(#g)" stroke-width="6"/><path d="M34 83V32h31c19 0 30 9 30 25S84 83 65 83H46" fill="none" stroke="url(#g)" stroke-width="10" stroke-linecap="round" stroke-linejoin="round"/></g><text x="88" y="250" fill="#52f2d2" font-family="Courier New,monospace" font-size="24" letter-spacing="4">PRODUTO CARRO-CHEFE</text><text x="88" y="354" fill="#f4f8ff" font-family="Arial Black,Arial,sans-serif" font-size="78" letter-spacing="-3">PREDIXAI</text><text x="438" y="354" fill="url(#g)" font-family="Arial Black,Arial,sans-serif" font-size="78" letter-spacing="-3">WORKFORCE</text><text x="92" y="430" fill="#c4d4e7" font-family="Arial,sans-serif" font-size="32">Departamentos inteligentes com controle humano.</text><text x="92" y="504" fill="#7f96af" font-family="Courier New,monospace" font-size="21" letter-spacing="2">AGENTES • AUTOMAÇÕES • INTEGRAÇÕES • GOVERNANÇA</text></svg>
